# xmcd
#
# Track frame offsets: 
#        150
#        151415
#        236015
#
# Disc length: 3587 seconds
#
# Revision: 10
# Processed by: cddbd v1.5.2PL0 Copyright (c) Steve Scherf et al.
# Submitted via: ExactAudioCopy v0.99pb4
#
DISCID=1b0e0103
DTITLE=John McLaughlin . Shakti - Remember Shakti [CD1) (1999)
DYEAR=1999
DGENRE=Fusion
TTITLE0=Chandrakauns
TTITLE1=The Wish
TTITLE2=Lotus Feet
EXTD=YEAR: 1999
EXTT0=
EXTT1=
EXTT2=
PLAYORDER=
